<mxfile host="65bd71144e">
    <diagram id="FkKGLEkpHspD69uRJxVb" name="Page-1">
        <mxGraphModel dx="1000" dy="586" grid="1" gridSize="20" guides="1" tooltips="1" connect="1" arrows="1" fold="1" page="0" pageScale="1" pageWidth="850" pageHeight="1100" background="none" math="0" shadow="0">
            <root>
                <mxCell id="0"/>
                <mxCell id="1" parent="0"/>
                <mxCell id="4" style="edgeStyle=none;html=1;" parent="1" source="2" target="3" edge="1">
                    <mxGeometry relative="1" as="geometry"/>
                </mxCell>
                <mxCell id="2" value="Client" style="rounded=0;whiteSpace=wrap;html=1;" parent="1" vertex="1">
                    <mxGeometry x="90" y="350" width="120" height="60" as="geometry"/>
                </mxCell>
                <mxCell id="7" style="edgeStyle=none;html=1;entryX=0;entryY=0.5;entryDx=0;entryDy=0;" parent="1" source="3" target="6" edge="1">
                    <mxGeometry relative="1" as="geometry"/>
                </mxCell>
                <mxCell id="9" style="edgeStyle=none;html=1;entryX=0;entryY=0.5;entryDx=0;entryDy=0;" parent="1" source="3" target="8" edge="1">
                    <mxGeometry relative="1" as="geometry"/>
                </mxCell>
                <mxCell id="5" value="" style="rounded=0;whiteSpace=wrap;html=1;glass=0;fillStyle=solid;fillColor=default;" parent="1" vertex="1">
                    <mxGeometry x="400" y="100" width="590" height="460" as="geometry"/>
                </mxCell>
                <mxCell id="19" style="edgeStyle=none;html=1;entryX=0;entryY=0.5;entryDx=0;entryDy=0;entryPerimeter=0;" parent="1" source="6" target="18" edge="1">
                    <mxGeometry relative="1" as="geometry"/>
                </mxCell>
                <mxCell id="6" value="user-ms" style="rounded=0;whiteSpace=wrap;html=1;glass=0;sketch=0;fillStyle=dashed;" parent="1" vertex="1">
                    <mxGeometry x="620" y="460" width="120" height="60" as="geometry"/>
                </mxCell>
                <mxCell id="21" style="edgeStyle=none;html=1;entryX=0;entryY=0.5;entryDx=0;entryDy=0;entryPerimeter=0;" parent="1" source="8" target="20" edge="1">
                    <mxGeometry relative="1" as="geometry"/>
                </mxCell>
                <mxCell id="8" value="product-ms" style="whiteSpace=wrap;html=1;rounded=0;glass=0;sketch=0;fillStyle=dashed;" parent="1" vertex="1">
                    <mxGeometry x="620" y="350" width="120" height="60" as="geometry"/>
                </mxCell>
                <mxCell id="11" style="edgeStyle=none;html=1;entryX=0;entryY=0.5;entryDx=0;entryDy=0;" parent="1" source="3" target="10" edge="1">
                    <mxGeometry relative="1" as="geometry"/>
                </mxCell>
                <mxCell id="39" style="edgeStyle=none;html=1;entryX=0;entryY=0.5;entryDx=0;entryDy=0;" parent="1" source="3" target="8" edge="1">
                    <mxGeometry relative="1" as="geometry"/>
                </mxCell>
                <mxCell id="40" style="edgeStyle=none;html=1;exitX=1;exitY=1;exitDx=0;exitDy=0;entryX=0;entryY=0.5;entryDx=0;entryDy=0;" parent="1" source="3" target="6" edge="1">
                    <mxGeometry relative="1" as="geometry"/>
                </mxCell>
                <mxCell id="42" style="edgeStyle=none;html=1;exitX=1;exitY=0;exitDx=0;exitDy=0;entryX=0;entryY=0.5;entryDx=0;entryDy=0;" edge="1" parent="1" source="3" target="41">
                    <mxGeometry relative="1" as="geometry"/>
                </mxCell>
                <mxCell id="3" value="Api gateway" style="whiteSpace=wrap;html=1;" parent="1" vertex="1">
                    <mxGeometry x="340" y="350" width="120" height="60" as="geometry"/>
                </mxCell>
                <mxCell id="23" style="edgeStyle=none;html=1;entryX=0;entryY=0.5;entryDx=0;entryDy=0;entryPerimeter=0;" parent="1" source="10" target="22" edge="1">
                    <mxGeometry relative="1" as="geometry"/>
                </mxCell>
                <mxCell id="10" value="media-ms" style="whiteSpace=wrap;html=1;rounded=0;glass=0;sketch=0;fillStyle=dashed;" parent="1" vertex="1">
                    <mxGeometry x="620" y="240" width="120" height="60" as="geometry"/>
                </mxCell>
                <mxCell id="14" value="JWT" style="rounded=0;whiteSpace=wrap;html=1;glass=0;sketch=0;fillStyle=dashed;" parent="1" vertex="1">
                    <mxGeometry x="580" y="500" width="60" height="40" as="geometry"/>
                </mxCell>
                <mxCell id="18" value="users" style="strokeWidth=2;html=1;shape=mxgraph.flowchart.database;whiteSpace=wrap;rounded=0;glass=0;sketch=0;fillStyle=dashed;" parent="1" vertex="1">
                    <mxGeometry x="840" y="460" width="60" height="60" as="geometry"/>
                </mxCell>
                <mxCell id="20" value="product" style="strokeWidth=2;html=1;shape=mxgraph.flowchart.database;whiteSpace=wrap;rounded=0;glass=0;sketch=0;fillStyle=dashed;" parent="1" vertex="1">
                    <mxGeometry x="840" y="350" width="60" height="60" as="geometry"/>
                </mxCell>
                <mxCell id="22" value="media" style="strokeWidth=2;html=1;shape=mxgraph.flowchart.database;whiteSpace=wrap;rounded=0;glass=0;sketch=0;fillStyle=dashed;" parent="1" vertex="1">
                    <mxGeometry x="840" y="240" width="60" height="60" as="geometry"/>
                </mxCell>
                <mxCell id="44" style="edgeStyle=none;html=1;entryX=0;entryY=0.5;entryDx=0;entryDy=0;entryPerimeter=0;" edge="1" parent="1" source="41" target="43">
                    <mxGeometry relative="1" as="geometry"/>
                </mxCell>
                <mxCell id="41" value="order-ms" style="whiteSpace=wrap;html=1;rounded=0;glass=0;sketch=0;fillStyle=dashed;" vertex="1" parent="1">
                    <mxGeometry x="620" y="140" width="120" height="60" as="geometry"/>
                </mxCell>
                <mxCell id="43" value="orders" style="strokeWidth=2;html=1;shape=mxgraph.flowchart.database;whiteSpace=wrap;rounded=0;glass=0;sketch=0;fillStyle=dashed;" vertex="1" parent="1">
                    <mxGeometry x="840" y="140" width="60" height="60" as="geometry"/>
                </mxCell>
                <mxCell id="46" value="" style="endArrow=classic;startArrow=classic;html=1;entryX=0.5;entryY=1;entryDx=0;entryDy=0;exitX=0.5;exitY=0;exitDx=0;exitDy=0;" edge="1" parent="1" source="10" target="41">
                    <mxGeometry width="50" height="50" relative="1" as="geometry">
                        <mxPoint x="760" y="290" as="sourcePoint"/>
                        <mxPoint x="810" y="240" as="targetPoint"/>
                    </mxGeometry>
                </mxCell>
                <mxCell id="47" value="" style="endArrow=classic;startArrow=classic;html=1;entryX=0.5;entryY=1;entryDx=0;entryDy=0;exitX=0.5;exitY=0;exitDx=0;exitDy=0;" edge="1" parent="1" source="8" target="10">
                    <mxGeometry width="50" height="50" relative="1" as="geometry">
                        <mxPoint x="700" y="260" as="sourcePoint"/>
                        <mxPoint x="700" y="220" as="targetPoint"/>
                        <Array as="points"/>
                    </mxGeometry>
                </mxCell>
                <mxCell id="50" value="" style="endArrow=classic;startArrow=classic;html=1;entryX=0.5;entryY=1;entryDx=0;entryDy=0;exitX=0.5;exitY=0;exitDx=0;exitDy=0;" edge="1" parent="1" source="6" target="8">
                    <mxGeometry width="50" height="50" relative="1" as="geometry">
                        <mxPoint x="660" y="470" as="sourcePoint"/>
                        <mxPoint x="710" y="420" as="targetPoint"/>
                    </mxGeometry>
                </mxCell>
                <mxCell id="51" value="kafka" style="edgeLabel;html=1;align=center;verticalAlign=middle;resizable=0;points=[];" vertex="1" connectable="0" parent="50">
                    <mxGeometry x="0.2311" y="-1" relative="1" as="geometry">
                        <mxPoint x="-1" y="-105" as="offset"/>
                    </mxGeometry>
                </mxCell>
                <mxCell id="52" value="kafka" style="edgeLabel;html=1;align=center;verticalAlign=middle;resizable=0;points=[];" vertex="1" connectable="0" parent="1">
                    <mxGeometry x="680" y="433.99666666666667" as="geometry"/>
                </mxCell>
                <mxCell id="53" value="kafka" style="edgeLabel;html=1;align=center;verticalAlign=middle;resizable=0;points=[];" vertex="1" connectable="0" parent="1">
                    <mxGeometry x="698" y="279.99666666666667" as="geometry">
                        <mxPoint x="-18" y="-61" as="offset"/>
                    </mxGeometry>
                </mxCell>
            </root>
        </mxGraphModel>
    </diagram>
</mxfile>